<svg width="236" height="42" viewBox="0 0 236 42" fill="none" xmlns="http://www.w3.org/2000/svg">
<rect width="236" height="42" fill="#1E1E1E"/>
<path d="M6.55651e-07 41.2841V0.556822H27.4432V7.65625H8.6108V17.3608H26.0313V24.4602H8.6108V34.1847H27.5227V41.2841H6.55651e-07ZM47.9311 41.8807C44.8023 41.8807 42.111 41.2178 39.8572 39.8921C37.6167 38.553 35.8932 36.697 34.6868 34.3239C33.4936 31.9508 32.897 29.2197 32.897 26.1307C32.897 23.0019 33.5002 20.2576 34.7067 17.8977C35.9264 15.5246 37.6565 13.6752 39.897 12.3494C42.1375 11.0104 44.8023 10.3409 47.8913 10.3409C50.5561 10.3409 52.8894 10.8248 54.8913 11.7926C56.8932 12.7604 58.4775 14.1193 59.6442 15.8693C60.8108 17.6193 61.4538 19.6742 61.5732 22.0341H53.5788C53.3535 20.5095 52.7569 19.2831 51.7891 18.3551C50.8345 17.4138 49.5817 16.9432 48.0305 16.9432C46.718 16.9432 45.5713 17.3011 44.5902 18.017C43.6224 18.7197 42.8667 19.7472 42.3232 21.0994C41.7796 22.4517 41.5078 24.089 41.5078 26.0114C41.5078 27.9602 41.773 29.6174 42.3033 30.983C42.8468 32.3485 43.6091 33.3892 44.5902 34.1051C45.5713 34.821 46.718 35.179 48.0305 35.179C48.9983 35.179 49.8667 34.9801 50.6357 34.5824C51.4179 34.1847 52.0608 33.608 52.5646 32.8523C53.0817 32.0833 53.4197 31.1619 53.5788 30.0881H61.5732C61.4406 32.4214 60.8042 34.4763 59.6641 36.2528C58.5372 38.0161 56.9794 39.3949 54.9908 40.3892C53.0021 41.3835 50.6489 41.8807 47.9311 41.8807ZM80.7983 41.8807C77.7093 41.8807 75.0379 41.2244 72.7841 39.9119C70.5436 38.5862 68.8134 36.7434 67.5938 34.3835C66.3741 32.0104 65.7642 29.2595 65.7642 26.1307C65.7642 22.9754 66.3741 20.2178 67.5938 17.858C68.8134 15.4849 70.5436 13.642 72.7841 12.3295C75.0379 11.0038 77.7093 10.3409 80.7983 10.3409C83.8873 10.3409 86.5521 11.0038 88.7926 12.3295C91.0464 13.642 92.7831 15.4849 94.0028 17.858C95.2225 20.2178 95.8324 22.9754 95.8324 26.1307C95.8324 29.2595 95.2225 32.0104 94.0028 34.3835C92.7831 36.7434 91.0464 38.5862 88.7926 39.9119C86.5521 41.2244 83.8873 41.8807 80.7983 41.8807ZM80.8381 35.3182C82.2434 35.3182 83.4167 34.9205 84.358 34.125C85.2992 33.3163 86.0085 32.2159 86.4858 30.8239C86.9763 29.4318 87.2216 27.8475 87.2216 26.071C87.2216 24.2945 86.9763 22.7102 86.4858 21.3182C86.0085 19.9261 85.2992 18.8258 84.358 18.017C83.4167 17.2083 82.2434 16.804 80.8381 16.804C79.4195 16.804 78.2263 17.2083 77.2585 18.017C76.304 18.8258 75.5814 19.9261 75.0909 21.3182C74.6136 22.7102 74.375 24.2945 74.375 26.071C74.375 27.8475 74.6136 29.4318 75.0909 30.8239C75.5814 32.2159 76.304 33.3163 77.2585 34.125C78.2263 34.9205 79.4195 35.3182 80.8381 35.3182Z" fill="white"/>
<path d="M6.55651e-07 41.2841V0.556822H27.4432V7.65625H8.6108V17.3608H26.0313V24.4602H8.6108V34.1847H27.5227V41.2841H6.55651e-07ZM47.9311 41.8807C44.8023 41.8807 42.111 41.2178 39.8572 39.8921C37.6167 38.553 35.8932 36.697 34.6868 34.3239C33.4936 31.9508 32.897 29.2197 32.897 26.1307C32.897 23.0019 33.5002 20.2576 34.7067 17.8977C35.9264 15.5246 37.6565 13.6752 39.897 12.3494C42.1375 11.0104 44.8023 10.3409 47.8913 10.3409C50.5561 10.3409 52.8894 10.8248 54.8913 11.7926C56.8932 12.7604 58.4775 14.1193 59.6442 15.8693C60.8108 17.6193 61.4538 19.6742 61.5732 22.0341H53.5788C53.3535 20.5095 52.7569 19.2831 51.7891 18.3551C50.8345 17.4138 49.5817 16.9432 48.0305 16.9432C46.718 16.9432 45.5713 17.3011 44.5902 18.017C43.6224 18.7197 42.8667 19.7472 42.3232 21.0994C41.7796 22.4517 41.5078 24.089 41.5078 26.0114C41.5078 27.9602 41.773 29.6174 42.3033 30.983C42.8468 32.3485 43.6091 33.3892 44.5902 34.1051C45.5713 34.821 46.718 35.179 48.0305 35.179C48.9983 35.179 49.8667 34.9801 50.6357 34.5824C51.4179 34.1847 52.0608 33.608 52.5646 32.8523C53.0817 32.0833 53.4197 31.1619 53.5788 30.0881H61.5732C61.4406 32.4214 60.8042 34.4763 59.6641 36.2528C58.5372 38.0161 56.9794 39.3949 54.9908 40.3892C53.0021 41.3835 50.6489 41.8807 47.9311 41.8807ZM80.7983 41.8807C77.7093 41.8807 75.0379 41.2244 72.7841 39.9119C70.5436 38.5862 68.8134 36.7434 67.5938 34.3835C66.3741 32.0104 65.7642 29.2595 65.7642 26.1307C65.7642 22.9754 66.3741 20.2178 67.5938 17.858C68.8134 15.4849 70.5436 13.642 72.7841 12.3295C75.0379 11.0038 77.7093 10.3409 80.7983 10.3409C83.8873 10.3409 86.5521 11.0038 88.7926 12.3295C91.0464 13.642 92.7831 15.4849 94.0028 17.858C95.2225 20.2178 95.8324 22.9754 95.8324 26.1307C95.8324 29.2595 95.2225 32.0104 94.0028 34.3835C92.7831 36.7434 91.0464 38.5862 88.7926 39.9119C86.5521 41.2244 83.8873 41.8807 80.7983 41.8807ZM80.8381 35.3182C82.2434 35.3182 83.4167 34.9205 84.358 34.125C85.2992 33.3163 86.0085 32.2159 86.4858 30.8239C86.9763 29.4318 87.2216 27.8475 87.2216 26.071C87.2216 24.2945 86.9763 22.7102 86.4858 21.3182C86.0085 19.9261 85.2992 18.8258 84.358 18.017C83.4167 17.2083 82.2434 16.804 80.8381 16.804C79.4195 16.804 78.2263 17.2083 77.2585 18.017C76.304 18.8258 75.5814 19.9261 75.0909 21.3182C74.6136 22.7102 74.375 24.2945 74.375 26.071C74.375 27.8475 74.6136 29.4318 75.0909 30.8239C75.5814 32.2159 76.304 33.3163 77.2585 34.125C78.2263 34.9205 79.4195 35.3182 80.8381 35.3182Z" fill="#075CA8"/>
<path d="M137.435 14.8153H128.724C128.565 13.6885 128.241 12.6875 127.75 11.8125C127.259 10.9242 126.63 10.1686 125.861 9.54546C125.092 8.92235 124.204 8.44508 123.196 8.11364C122.202 7.7822 121.121 7.61648 119.955 7.61648C117.847 7.61648 116.01 8.14016 114.446 9.1875C112.882 10.2216 111.669 11.733 110.807 13.7216C109.945 15.697 109.514 18.0966 109.514 20.9205C109.514 23.8239 109.945 26.2633 110.807 28.2386C111.682 30.214 112.902 31.7055 114.466 32.7131C116.03 33.7206 117.84 34.2244 119.895 34.2244C121.048 34.2244 122.116 34.072 123.097 33.7671C124.091 33.4621 124.973 33.018 125.741 32.4347C126.51 31.8381 127.147 31.1155 127.651 30.2671C128.168 29.4186 128.526 28.4508 128.724 27.3636L137.435 27.4034C137.209 29.2727 136.646 31.0758 135.744 32.8125C134.856 34.536 133.656 36.0805 132.145 37.446C130.647 38.7983 128.857 39.8722 126.776 40.6676C124.707 41.4498 122.367 41.8409 119.756 41.8409C116.123 41.8409 112.875 41.0189 110.011 39.375C107.161 37.7311 104.907 35.3513 103.25 32.2358C101.606 29.1203 100.784 25.3485 100.784 20.9205C100.784 16.4792 101.619 12.7008 103.29 9.58523C104.96 6.4697 107.227 4.09659 110.091 2.46591C112.955 0.821974 116.176 3.33786e-06 119.756 3.33786e-06C122.116 3.33786e-06 124.303 0.331443 126.318 0.994322C128.347 1.6572 130.143 2.625 131.707 3.89773C133.272 5.1572 134.545 6.70171 135.526 8.53125C136.52 10.3608 137.156 12.4555 137.435 14.8153ZM152.161 41.8608C150.212 41.8608 148.475 41.5227 146.95 40.8466C145.426 40.1572 144.219 39.143 143.331 37.804C142.456 36.4517 142.018 34.768 142.018 32.7528C142.018 31.0559 142.33 29.6307 142.953 28.4773C143.576 27.3239 144.425 26.3958 145.499 25.6932C146.572 24.9905 147.792 24.4602 149.158 24.1023C150.536 23.7443 151.982 23.4924 153.493 23.3466C155.269 23.161 156.701 22.9886 157.788 22.8295C158.875 22.6572 159.664 22.4053 160.155 22.0739C160.645 21.7424 160.891 21.2519 160.891 20.6023V20.483C160.891 19.2235 160.493 18.2491 159.697 17.5597C158.915 16.8703 157.802 16.5256 156.357 16.5256C154.832 16.5256 153.619 16.8636 152.717 17.5398C151.816 18.2027 151.219 19.0379 150.928 20.0455L143.092 19.4091C143.49 17.553 144.272 15.9489 145.439 14.5966C146.606 13.2311 148.11 12.1837 149.953 11.4545C151.809 10.7121 153.957 10.3409 156.396 10.3409C158.093 10.3409 159.717 10.5398 161.268 10.9375C162.833 11.3352 164.218 11.9517 165.425 12.7869C166.644 13.6222 167.606 14.696 168.308 16.0085C169.011 17.3078 169.362 18.8655 169.362 20.6818V41.2841H161.328V37.0483H161.089C160.599 38.0028 159.943 38.8447 159.121 39.5739C158.299 40.2898 157.311 40.8532 156.158 41.2642C155.004 41.6619 153.672 41.8608 152.161 41.8608ZM154.587 36.0142C155.833 36.0142 156.933 35.7689 157.888 35.2784C158.842 34.7746 159.591 34.0985 160.135 33.25C160.679 32.4015 160.95 31.4403 160.95 30.3665V27.125C160.685 27.2974 160.321 27.4564 159.857 27.6023C159.406 27.7349 158.895 27.8608 158.325 27.9801C157.755 28.0862 157.185 28.1856 156.615 28.2784C156.045 28.358 155.528 28.4309 155.064 28.4972C154.07 28.643 153.201 28.875 152.459 29.1932C151.716 29.5114 151.14 29.9422 150.729 30.4858C150.318 31.0161 150.112 31.679 150.112 32.4744C150.112 33.6278 150.53 34.5095 151.365 35.1193C152.214 35.7159 153.287 36.0142 154.587 36.0142ZM201.349 19.4489L193.594 19.9261C193.461 19.2633 193.176 18.6667 192.739 18.1364C192.301 17.5928 191.724 17.1619 191.009 16.8438C190.306 16.5123 189.464 16.3466 188.483 16.3466C187.17 16.3466 186.063 16.625 185.162 17.1818C184.26 17.7254 183.81 18.4545 183.81 19.3693C183.81 20.0985 184.101 20.715 184.685 21.2188C185.268 21.7225 186.269 22.1269 187.688 22.4318L193.216 23.5455C196.186 24.1553 198.4 25.1364 199.858 26.4886C201.316 27.8409 202.045 29.6174 202.045 31.8182C202.045 33.8201 201.455 35.5767 200.276 37.0881C199.109 38.5994 197.505 39.7794 195.463 40.6278C193.435 41.4631 191.095 41.8807 188.443 41.8807C184.4 41.8807 181.178 41.0388 178.778 39.3551C176.392 37.6581 174.993 35.3513 174.582 32.4347L182.915 31.9972C183.167 33.2301 183.777 34.1714 184.744 34.821C185.712 35.4574 186.952 35.7756 188.463 35.7756C189.948 35.7756 191.141 35.4905 192.043 34.9205C192.957 34.3371 193.421 33.5881 193.435 32.6733C193.421 31.9044 193.097 31.2746 192.46 30.7841C191.824 30.2803 190.843 29.8958 189.517 29.6307L184.227 28.5767C181.244 27.9801 179.024 26.946 177.565 25.4744C176.12 24.0028 175.398 22.1269 175.398 19.8466C175.398 17.8845 175.928 16.1941 176.989 14.7756C178.063 13.357 179.567 12.2633 181.503 11.4943C183.452 10.7254 185.732 10.3409 188.344 10.3409C192.202 10.3409 195.238 11.1563 197.452 12.7869C199.679 14.4176 200.978 16.6383 201.349 19.4489ZM215.852 23.625V41.2841H207.38V0.556822H215.613V16.1278H215.971C216.66 14.3248 217.774 12.9129 219.312 11.892C220.85 10.858 222.779 10.3409 225.099 10.3409C227.22 10.3409 229.069 10.8049 230.647 11.733C232.238 12.6477 233.471 13.9669 234.346 15.6903C235.234 17.4006 235.672 19.4489 235.658 21.8352V41.2841H227.187V23.3466C227.2 21.464 226.723 19.9991 225.755 18.9517C224.8 17.9044 223.461 17.3807 221.738 17.3807C220.585 17.3807 219.564 17.626 218.675 18.1165C217.8 18.607 217.111 19.3229 216.607 20.2642C216.117 21.1922 215.865 22.3125 215.852 23.625Z" fill="white"/>
<path d="M137.435 14.8153H128.724C128.565 13.6885 128.241 12.6875 127.75 11.8125C127.259 10.9242 126.63 10.1686 125.861 9.54546C125.092 8.92235 124.204 8.44508 123.196 8.11364C122.202 7.7822 121.121 7.61648 119.955 7.61648C117.847 7.61648 116.01 8.14016 114.446 9.1875C112.882 10.2216 111.669 11.733 110.807 13.7216C109.945 15.697 109.514 18.0966 109.514 20.9205C109.514 23.8239 109.945 26.2633 110.807 28.2386C111.682 30.214 112.902 31.7055 114.466 32.7131C116.03 33.7206 117.84 34.2244 119.895 34.2244C121.048 34.2244 122.116 34.072 123.097 33.7671C124.091 33.4621 124.973 33.018 125.741 32.4347C126.51 31.8381 127.147 31.1155 127.651 30.2671C128.168 29.4186 128.526 28.4508 128.724 27.3636L137.435 27.4034C137.209 29.2727 136.646 31.0758 135.744 32.8125C134.856 34.536 133.656 36.0805 132.145 37.446C130.647 38.7983 128.857 39.8722 126.776 40.6676C124.707 41.4498 122.367 41.8409 119.756 41.8409C116.123 41.8409 112.875 41.0189 110.011 39.375C107.161 37.7311 104.907 35.3513 103.25 32.2358C101.606 29.1203 100.784 25.3485 100.784 20.9205C100.784 16.4792 101.619 12.7008 103.29 9.58523C104.96 6.4697 107.227 4.09659 110.091 2.46591C112.955 0.821974 116.176 3.33786e-06 119.756 3.33786e-06C122.116 3.33786e-06 124.303 0.331443 126.318 0.994322C128.347 1.6572 130.143 2.625 131.707 3.89773C133.272 5.1572 134.545 6.70171 135.526 8.53125C136.52 10.3608 137.156 12.4555 137.435 14.8153ZM152.161 41.8608C150.212 41.8608 148.475 41.5227 146.95 40.8466C145.426 40.1572 144.219 39.143 143.331 37.804C142.456 36.4517 142.018 34.768 142.018 32.7528C142.018 31.0559 142.33 29.6307 142.953 28.4773C143.576 27.3239 144.425 26.3958 145.499 25.6932C146.572 24.9905 147.792 24.4602 149.158 24.1023C150.536 23.7443 151.982 23.4924 153.493 23.3466C155.269 23.161 156.701 22.9886 157.788 22.8295C158.875 22.6572 159.664 22.4053 160.155 22.0739C160.645 21.7424 160.891 21.2519 160.891 20.6023V20.483C160.891 19.2235 160.493 18.2491 159.697 17.5597C158.915 16.8703 157.802 16.5256 156.357 16.5256C154.832 16.5256 153.619 16.8636 152.717 17.5398C151.816 18.2027 151.219 19.0379 150.928 20.0455L143.092 19.4091C143.49 17.553 144.272 15.9489 145.439 14.5966C146.606 13.2311 148.11 12.1837 149.953 11.4545C151.809 10.7121 153.957 10.3409 156.396 10.3409C158.093 10.3409 159.717 10.5398 161.268 10.9375C162.833 11.3352 164.218 11.9517 165.425 12.7869C166.644 13.6222 167.606 14.696 168.308 16.0085C169.011 17.3078 169.362 18.8655 169.362 20.6818V41.2841H161.328V37.0483H161.089C160.599 38.0028 159.943 38.8447 159.121 39.5739C158.299 40.2898 157.311 40.8532 156.158 41.2642C155.004 41.6619 153.672 41.8608 152.161 41.8608ZM154.587 36.0142C155.833 36.0142 156.933 35.7689 157.888 35.2784C158.842 34.7746 159.591 34.0985 160.135 33.25C160.679 32.4015 160.95 31.4403 160.95 30.3665V27.125C160.685 27.2974 160.321 27.4564 159.857 27.6023C159.406 27.7349 158.895 27.8608 158.325 27.9801C157.755 28.0862 157.185 28.1856 156.615 28.2784C156.045 28.358 155.528 28.4309 155.064 28.4972C154.07 28.643 153.201 28.875 152.459 29.1932C151.716 29.5114 151.14 29.9422 150.729 30.4858C150.318 31.0161 150.112 31.679 150.112 32.4744C150.112 33.6278 150.53 34.5095 151.365 35.1193C152.214 35.7159 153.287 36.0142 154.587 36.0142ZM201.349 19.4489L193.594 19.9261C193.461 19.2633 193.176 18.6667 192.739 18.1364C192.301 17.5928 191.724 17.1619 191.009 16.8438C190.306 16.5123 189.464 16.3466 188.483 16.3466C187.17 16.3466 186.063 16.625 185.162 17.1818C184.26 17.7254 183.81 18.4545 183.81 19.3693C183.81 20.0985 184.101 20.715 184.685 21.2188C185.268 21.7225 186.269 22.1269 187.688 22.4318L193.216 23.5455C196.186 24.1553 198.4 25.1364 199.858 26.4886C201.316 27.8409 202.045 29.6174 202.045 31.8182C202.045 33.8201 201.455 35.5767 200.276 37.0881C199.109 38.5994 197.505 39.7794 195.463 40.6278C193.435 41.4631 191.095 41.8807 188.443 41.8807C184.4 41.8807 181.178 41.0388 178.778 39.3551C176.392 37.6581 174.993 35.3513 174.582 32.4347L182.915 31.9972C183.167 33.2301 183.777 34.1714 184.744 34.821C185.712 35.4574 186.952 35.7756 188.463 35.7756C189.948 35.7756 191.141 35.4905 192.043 34.9205C192.957 34.3371 193.421 33.5881 193.435 32.6733C193.421 31.9044 193.097 31.2746 192.46 30.7841C191.824 30.2803 190.843 29.8958 189.517 29.6307L184.227 28.5767C181.244 27.9801 179.024 26.946 177.565 25.4744C176.12 24.0028 175.398 22.1269 175.398 19.8466C175.398 17.8845 175.928 16.1941 176.989 14.7756C178.063 13.357 179.567 12.2633 181.503 11.4943C183.452 10.7254 185.732 10.3409 188.344 10.3409C192.202 10.3409 195.238 11.1563 197.452 12.7869C199.679 14.4176 200.978 16.6383 201.349 19.4489ZM215.852 23.625V41.2841H207.38V0.556822H215.613V16.1278H215.971C216.66 14.3248 217.774 12.9129 219.312 11.892C220.85 10.858 222.779 10.3409 225.099 10.3409C227.22 10.3409 229.069 10.8049 230.647 11.733C232.238 12.6477 233.471 13.9669 234.346 15.6903C235.234 17.4006 235.672 19.4489 235.658 21.8352V41.2841H227.187V23.3466C227.2 21.464 226.723 19.9991 225.755 18.9517C224.8 17.9044 223.461 17.3807 221.738 17.3807C220.585 17.3807 219.564 17.626 218.675 18.1165C217.8 18.607 217.111 19.3229 216.607 20.2642C216.117 21.1922 215.865 22.3125 215.852 23.625Z" fill="#EB2024"/>
</svg>
